<svg width="800" height="400" viewBox="0 0 800 400" fill="none" xmlns="http://www.w3.org/2000/svg">
  <rect width="800" height="400" fill="#FAFAF9"/>
  <rect x="40" y="40" width="720" height="320" rx="8" fill="#FFFFFF" stroke="#E5E5E5" stroke-width="2"/>
  
  <!-- Header bar -->
  <rect x="40" y="40" width="720" height="60" rx="8" fill="#D97706"/>
  <rect x="40" y="92" width="720" height="8" fill="#D97706"/>
  
  <!-- Cards representing touchpoint prompts -->
  <rect x="80" y="140" width="200" height="100" rx="4" fill="#FEF3C7" stroke="#D97706" stroke-width="1"/>
  <rect x="100" y="160" width="120" height="8" rx="2" fill="#D97706"/>
  <rect x="100" y="180" width="160" height="6" rx="2" fill="#737373" opacity="0.5"/>
  <rect x="100" y="195" width="140" height="6" rx="2" fill="#737373" opacity="0.5"/>
  <rect x="100" y="210" width="80" height="16" rx="2" fill="#D97706"/>
  
  <rect x="300" y="140" width="200" height="100" rx="4" fill="#FEF3C7" stroke="#D97706" stroke-width="1"/>
  <rect x="320" y="160" width="100" height="8" rx="2" fill="#D97706"/>
  <rect x="320" y="180" width="160" height="6" rx="2" fill="#737373" opacity="0.5"/>
  <rect x="320" y="195" width="140" height="6" rx="2" fill="#737373" opacity="0.5"/>
  <rect x="320" y="210" width="80" height="16" rx="2" fill="#D97706"/>
  
  <rect x="520" y="140" width="200" height="100" rx="4" fill="#FEF3C7" stroke="#D97706" stroke-width="1"/>
  <rect x="540" y="160" width="140" height="8" rx="2" fill="#D97706"/>
  <rect x="540" y="180" width="160" height="6" rx="2" fill="#737373" opacity="0.5"/>
  <rect x="540" y="195" width="140" height="6" rx="2" fill="#737373" opacity="0.5"/>
  <rect x="540" y="210" width="80" height="16" rx="2" fill="#D97706"/>
  
  <!-- Text -->
  <text x="400" y="300" font-family="monospace" font-size="24" fill="#1A1A1A" text-anchor="middle">Generosity Catalyst</text>
  <text x="400" y="330" font-family="sans-serif" font-size="14" fill="#737373" text-anchor="middle">Donor Relationship CRM</text>
</svg>
