<svg width="800" height="400" viewBox="0 0 800 400" fill="none" xmlns="http://www.w3.org/2000/svg">
  <rect width="800" height="400" fill="#FAFAF9"/>
  <rect x="40" y="40" width="720" height="320" rx="8" fill="#FFFFFF" stroke="#E5E5E5" stroke-width="2"/>
  
  <!-- Salesforce-style interface -->
  <rect x="40" y="40" width="720" height="50" fill="#00A1E0"/>
  
  <!-- Navigation tabs -->
  <rect x="60" y="50" width="80" height="30" rx="0" fill="#FFFFFF"/>
  <rect x="150" y="55" width="60" height="8" rx="2" fill="#FFFFFF" opacity="0.7"/>
  <rect x="220" y="55" width="70" height="8" rx="2" fill="#FFFFFF" opacity="0.7"/>
  
  <!-- Dashboard grid -->
  <rect x="60" y="110" width="320" height="140" rx="4" fill="#FFFFFF" stroke="#E5E5E5" stroke-width="1"/>
  <rect x="80" y="125" width="150" height="10" rx="2" fill="#00A1E0"/>
  <text x="80" y="155" font-family="monospace" font-size="36" fill="#22C55E">40%</text>
  <text x="80" y="175" font-family="sans-serif" font-size="12" fill="#737373">Fewer Lost Donors</text>
  
  <!-- Chart bars -->
  <rect x="80" y="200" width="40" height="30" fill="#00A1E0" opacity="0.3"/>
  <rect x="130" y="190" width="40" height="40" fill="#00A1E0" opacity="0.5"/>
  <rect x="180" y="175" width="40" height="55" fill="#00A1E0" opacity="0.7"/>
  <rect x="230" y="160" width="40" height="70" fill="#22C55E"/>
  <rect x="280" y="165" width="40" height="65" fill="#22C55E" opacity="0.8"/>
  
  <!-- Right panel -->
  <rect x="400" y="110" width="340" height="140" rx="4" fill="#FFFFFF" stroke="#E5E5E5" stroke-width="1"/>
  <rect x="420" y="125" width="120" height="10" rx="2" fill="#00A1E0"/>
  <rect x="420" y="150" width="300" height="8" rx="2" fill="#737373" opacity="0.3"/>
  <rect x="420" y="170" width="280" height="8" rx="2" fill="#737373" opacity="0.3"/>
  <rect x="420" y="190" width="260" height="8" rx="2" fill="#737373" opacity="0.3"/>
  <rect x="420" y="210" width="100" height="24" rx="4" fill="#22C55E"/>
  
  <!-- Text -->
  <text x="400" y="300" font-family="monospace" font-size="24" fill="#1A1A1A" text-anchor="middle">Wilderness Committee</text>
  <text x="400" y="330" font-family="sans-serif" font-size="14" fill="#737373" text-anchor="middle">Salesforce & Digital Fundraising</text>
</svg>
